<svg width="205" height="85" xmlns="http://www.w3.org/2000/svg">
    <!-- Created with MK Tools - http://tool.mkblog.cn/svg/ -->
    <g>
        <title>Layer 1</title>
        <g stroke="null" id="svg_110">
            <g stroke="null" transform="matrix(0.3373524974841981,0,0,0.35488802679704234,-6845.299283860188,-5795.54207462124) " id="svg_6">
                <path stroke="null" id="svg_7" d="m20126.91849,16368.671159c-7.017,8.0721 -14.017,16.0721 -21,24c-2.617,1.2859 -4.95,2.9525 -7,5c-3.483,3.2392 -7.15,6.2392 -11,9c-3.31,1.9821 -6.31,4.3154 -9,7c-3.181,0.8485 -5.848,2.5152 -8,5c-7.081,-18.6146 -13.414,-37.6146 -19,-57c24.726,0.7828 49.393,2.4494 74,5c0.363,0.6835 0.696,1.3501 1,2z" fill="#1a1e22"/>
            </g>
            <g stroke="null" transform="matrix(0.3373524974841981,0,0,0.35488802679704234,-6845.299283860188,-5795.54207462124) " id="svg_8">
                <path stroke="null" id="svg_9" d="m20188.91849,16427.671159c-5.977,0.9797 -11.977,1.9797 -18,3c-13,1.3333 -26,1.3333 -39,0c-2.627,-0.6049 -5.293,-1.1049 -8,-1.5c-2.26,-0.5494 -3.926,-1.716 -5,-3.5c4.496,-15.984 8.996,-31.984 13.5,-48c0.779,-1.2282 1.779,-2.2282 3,-3c19.48,16.1491 38.314,32.9824 56.5,50.5c-0.248,1.7491 -1.248,2.5824 -3,2.5z" fill="#1b2023"/>
            </g>
            <g stroke="null" transform="matrix(0.3373524974841981,0,0,0.35488802679704234,-6845.299283860188,-5795.54207462124) " id="svg_10">
                <path stroke="null" id="svg_11" d="m20047.91849,16378.671159c0.721,13.5861 -0.613,26.9195 -4,40c-0.886,3.5833 -1.886,7.25 -3,11c-1.574,3.4065 -2.574,7.0732 -3,11c-2.092,2.588 -3.425,5.588 -4,9c-0.453,2.065 -1.453,3.732 -3,5c-10.972,-7.156 -21.972,-14.3229 -33,-21.5c-3.172,-2.0064 -5.838,-4.5064 -8,-7.5c17.32,-16.1795 35.32,-31.6795 54,-46.5c1.293,-0.49 2.627,-0.6567 4,-0.5z" fill="#1b1f22"/>
            </g>
            <g stroke="null" transform="matrix(0.3373524974841981,0,0,0.35488802679704234,-6845.299283860188,-5795.54207462124) " id="svg_12">
                <path stroke="null" id="svg_13" d="m20126.91849,16368.671159c-3.551,12.56 -7.551,24.8933 -12,37c0,-1 0,-2 0,-3c-1.967,0.2394 -3.801,-0.0939 -5.5,-1c-1.57,-2.1046 -3.07,-4.2712 -4.5,-6.5c0.243,-0.9021 0.577,-1.7354 1,-2.5c6.983,-7.9279 13.983,-15.9279 21,-24z" fill="#30b0b9"/>
            </g>
            <g stroke="null" transform="matrix(0.3373524974841981,0,0,0.35488802679704234,-6845.299283860188,-5795.54207462124) " id="svg_14">
                <path stroke="null" id="svg_15" d="m20462.91849,16468.671159c-1.452,2.348 -2.118,5.014 -2,8c0.007,1.869 0.34,3.536 1,5c-0.085,1.495 0.581,2.495 2,3c2.01,-1.671 4.343,-2.338 7,-2c-0.401,3.57 -2.401,5.736 -6,6.5c-8.873,1.487 -12.873,-2.346 -12,-11.5c-0.046,-4.411 0.954,-8.578 3,-12.5c-0.333,-0.5 -0.667,-1 -1,-1.5c-4.593,5.09 -9.926,9.257 -16,12.5c-5.799,1.35 -10.299,-0.483 -13.5,-5.5c-3.283,3.271 -7.116,5.771 -11.5,7.5c-4.774,1.361 -8.274,-0.139 -10.5,-4.5c-0.967,-4.023 -1.634,-8.023 -2,-12c4.621,-4.909 7.954,-10.575 10,-17c2.153,-1.944 4.653,-2.444 7.5,-1.5c1.074,0.739 1.741,1.739 2,3c-3.342,5.528 -6.009,11.361 -8,17.5c-1.703,2.351 -2.203,5.018 -1.5,8c1.292,1.291 2.458,1.291 3.5,0c1.183,-1.004 2.516,-1.838 4,-2.5c7.037,-8.705 15.037,-16.371 24,-23c6.544,-4.7199 13.877,-6.7199 22,-6c3.952,-8.744 8.785,-16.9106 14.5,-24.5c6.333,-8.4554 14,-10.1221 23,-5c0.738,3.9017 0.072,7.5684 -2,11c-3.754,5.7581 -8.254,10.9248 -13.5,15.5c-6.167,4.8333 -12.333,9.667 -18.5,14.5c-2.296,5.52 -4.13,11.187 -5.5,17z" fill="#0d0d0d"/>
            </g>
            <g stroke="null" transform="matrix(0.3373524974841981,0,0,0.35488802679704234,-6845.299283860188,-5795.54207462124) " id="svg_16">
                <path stroke="null" id="svg_17" d="m20345.91849,16408.671159c6.093,-0.3608 12.093,0.1392 18,1.5c2.094,1.255 3.094,3.0884 3,5.5c-0.65,5.6614 -3.483,9.6614 -8.5,12c-1.5,-0.1667 -2.333,-1 -2.5,-2.5c7.323,-5.5115 6.49,-9.0115 -2.5,-10.5c-10.088,0.5845 -19.255,3.7512 -27.5,9.5c-1.054,1.3876 -1.22,2.8876 -0.5,4.5c9.766,3.5876 19.266,7.7542 28.5,12.5c7.444,4.715 8.944,10.881 4.5,18.5c-16.571,17.082 -36.404,23.248 -59.5,18.5c-6.074,-6.014 -6.574,-12.514 -1.5,-19.5c7.856,-9.675 18.023,-14.009 30.5,-13c0,1.333 0,2.667 0,4c-9.685,-0.24 -17.518,3.426 -23.5,11c-2.793,5.114 -1.626,8.947 3.5,11.5c14.823,1.392 28.49,-1.941 41,-10c4.527,-3.031 5.86,-7.031 4,-12c-10.632,-4.659 -21.299,-9.3252 -32,-14c-7.013,-6.9624 -6.346,-13.2957 2,-19c7.242,-4.3544 14.909,-7.1877 23,-8.5z" fill="#0a0a0a"/>
            </g>
            <g stroke="null" transform="matrix(0.3373524974841981,0,0,0.35488802679704234,-6845.299283860188,-5795.54207462124) " id="svg_18">
                <path stroke="null" id="svg_19" d="m20725.91849,16448.671159c-1.287,2.575 -2.621,5.241 -4,8c0.502,1.021 1.168,1.188 2,0.5c0.886,-1.615 1.886,-3.115 3,-4.5c4.303,-3.492 8.636,-6.992 13,-10.5c2.73,-0.7284 5.397,-0.5617 8,0.5c1.131,1.574 1.298,3.241 0.5,5c-2.94,5.546 -5.606,11.213 -8,17c-0.667,2.333 -0.667,4.667 0,7c0.414,0.457 0.914,0.791 1.5,1c3.14,-1.973 6.14,-4.14 9,-6.5c5.713,-8.713 13.046,-15.713 22,-21c7.521,-5.0456 15.188,-5.5456 23,-1.5c0.333,1.5 0.667,3 1,4.5c-0.951,5.071 -2.618,9.904 -5,14.5c-1.781,2.683 -2.281,5.683 -1.5,9c1.292,1.291 2.458,1.291 3.5,0c1.183,-1.004 2.516,-1.838 4,-2.5c8.125,-10.462 17.792,-19.129 29,-26c6.39,-3.0966 12.72,-3.0966 19,0c0.59,2.28 1.42,4.447 2.5,6.5c-0.7,6.419 -2.86,12.419 -6.5,18c0.33,0.333 0.67,0.667 1,1c7.15,-6.652 14.15,-13.485 21,-20.5c3.7,-2.852 7.7,-5.185 12,-7c12.58,-1.0937 15.41,3.74 8.5,14.5c-6.84,5.561 -14.67,8.895 -23.5,10c-2.05,4.574 -0.71,7.24 4,8c10.43,-2.098 18.76,-7.431 25,-16c1.55,-0.952 3.21,-1.285 5,-1c0.16,1.373 -0.01,2.707 -0.5,4c-6.07,7.744 -13.57,13.577 -22.5,17.5c-9.71,2.89 -17.05,0.057 -22,-8.5c-4.74,4.119 -9.57,8.119 -14.5,12c-4.57,10.149 -9.91,19.816 -16,29c-6.611,7.923 -13.944,8.923 -22,3c-0.817,-3.464 -0.483,-6.798 1,-10c7.796,-10.46 17.463,-18.793 29,-25c2.34,-4.998 4.34,-9.998 6,-15c-3.17,3.167 -6.33,6.333 -9.5,9.5c-7.443,5.294 -14.11,4.46 -20,-2.5c-4.527,5.267 -10.193,7.767 -17,7.5c-2.167,-0.833 -3.667,-2.333 -4.5,-4.5c-0.333,-2.667 -0.667,-5.333 -1,-8c-4.125,6.138 -9.792,9.805 -17,11c-4.52,-0.34 -8.02,-2.34 -10.5,-6c-4.861,5.34 -10.861,7.84 -18,7.5c-1.964,-1.451 -3.297,-3.284 -4,-5.5c0.052,-3.698 0.386,-7.365 1,-11c1.004,-3.508 2.671,-6.674 5,-9.5c-0.667,-0.667 -1.333,-0.667 -2,0c-7.229,7.393 -13.896,15.226 -20,23.5c-1.92,1.476 -4.087,2.476 -6.5,3c-1.5,-0.167 -2.333,-1 -2.5,-2.5c1.529,-1.582 2.029,-3.415 1.5,-5.5c-4.869,6.371 -11.035,8.538 -18.5,6.5c-1.201,-0.903 -2.035,-2.069 -2.5,-3.5c-0.333,-2.667 -0.667,-5.333 -1,-8c-3.642,4.646 -8.142,8.146 -13.5,10.5c-6.599,1.866 -11.265,-0.3 -14,-6.5c-3.306,3.805 -7.306,6.638 -12,8.5c-5.847,1.328 -9.68,-0.839 -11.5,-6.5c-0.727,-14.486 2.273,-28.152 9,-41c1.039,-2.4009 1.206,-4.7343 0.5,-7c-5.312,3.4785 -9.812,7.8118 -13.5,13c-8.777,12.578 -17.277,25.244 -25.5,38c-2.619,-1.568 -3.952,-3.902 -4,-7c4.576,-13.302 6.076,-26.9686 4.5,-41c-1.119,-2.7906 -3.119,-4.4573 -6,-5c-10.336,4.3433 -19.336,10.6767 -27,19c-4.337,12.34 -10.004,24.007 -17,35c-3.583,5.203 -8.416,8.537 -14.5,10c-3.035,0.066 -5.202,-1.267 -6.5,-4c-0.587,-3.853 -0.254,-7.52 1,-11c-5.384,6.911 -12.05,8.911 -20,6c-1.434,-3.906 -1.767,-7.906 -1,-12c3.285,-4.954 6.952,-9.62 11,-14c0.684,-1.284 0.517,-2.451 -0.5,-3.5c-2.079,-0.808 -4.079,-0.641 -6,0.5c-5.35,9.176 -12.017,17.343 -20,24.5c-7.123,5.448 -15.123,7.448 -24,6c-8.547,-4.363 -10.38,-10.863 -5.5,-19.5c6.043,-7.71 13.543,-13.543 22.5,-17.5c9.595,-1.9275 13.095,1.906 10.5,11.5c-6.766,7.634 -15.266,11.967 -25.5,13c-2.048,4.574 -0.715,7.24 4,8c8.422,-1.793 15.588,-5.793 21.5,-12c3.867,-4.568 7.367,-9.401 10.5,-14.5c-2.894,-0.869 -4.061,-2.702 -3.5,-5.5c5.388,-2.0551 9.554,-5.5551 12.5,-10.5c1.612,-0.7203 3.112,-0.5536 4.5,0.5c0.609,2.5652 0.109,4.8985 -1.5,7c-0.904,0.709 -1.237,1.709 -1,3c3.667,0 7.333,0 11,0c2.744,0.572 3.577,2.238 2.5,5c-6.916,7.172 -11.75,15.505 -14.5,25c7.534,-2.678 13.534,-7.512 18,-14.5c1.735,-0.651 3.402,-0.485 5,0.5c6.652,-7.152 13.485,-14.152 20.5,-21c2.233,-3.159 3.066,-6.4923 2.5,-10c-4.012,2.3828 -8.345,3.3828 -13,3c-0.157,-1.3734 0.01,-2.7068 0.5,-4c9.237,-2.2346 15.737,-7.7346 19.5,-16.5c7.945,-1.8179 10.112,1.0155 6.5,8.5c-1.164,2.1488 -2.33,4.3154 -3.5,6.5c0.333,0.1667 0.667,0.3333 1,0.5c4.167,-3.5868 8.834,-6.4202 14,-8.5c9.652,-1.9243 16.485,1.5757 20.5,10.5c0.667,5.3333 0.667,10.6667 0,16c-1.574,3.535 -2.241,7.202 -2,11c7.68,-13.8473 17.18,-26.3473 28.5,-37.5c11.26,-4.4165 15.426,-0.5831 12.5,11.5c-4.666,10.3308 -8.332,20.997 -11,32c-0.667,3.667 -0.667,7.333 0,11c3.128,1.442 5.962,0.942 8.5,-1.5c6.032,-5.698 11.699,-11.698 17,-18c5.427,-3.764 11.093,-7.097 17,-10c5.262,-1.1627 10.096,-0.3294 14.5,2.5c0.339,2.536 0.839,5.036 1.5,7.5c-3.573,5.316 -5.906,11.15 -7,17.5c-0.158,1.819 0.509,3.152 2,4c12.088,-6.364 19.421,-16.198 22,-29.5c2.333,-0.667 4.667,-0.667 7,0c1.252,1.828 1.252,3.661 0,5.5z" fill="#0b0b0b"/>
            </g>
            <g stroke="null" transform="matrix(0.3373524974841981,0,0,0.35488802679704234,-6845.299283860188,-5795.54207462124) " id="svg_20">
                <path stroke="null" id="svg_21" d="m20047.91849,16378.671159c0.815,0.9293 1.648,1.9293 2.5,3c6.359,21.1173 12.859,42.1173 19.5,63c-1.91,-2.387 -4.077,-4.7205 -6.5,-7c-0.308,0.8081 -0.808,1.4747 -1.5,2c-0.667,-4.3333 -1.333,-8.6667 -2,-13c-0.808,1.9233 -1.308,3.9233 -1.5,6c-3.531,-2.8713 -6.364,-6.3713 -8.5,-10.5c-2.81,-0.0072 -4.81,-1.1738 -6,-3.5c3.387,-13.0805 4.721,-26.4139 4,-40z" fill="#38a4b7"/>
            </g>
            <g stroke="null" transform="matrix(0.3373524974841981,0,0,0.35488802679704234,-6845.299283860188,-5795.54207462124) " id="svg_22">
                <path stroke="null" id="svg_23" d="m20105.91849,16392.671159c-0.423,0.7646 -0.757,1.5979 -1,2.5c1.43,2.2288 2.93,4.3954 4.5,6.5c1.699,0.9061 3.533,1.2394 5.5,1c0,1 0,2 0,3c-1.579,7.3411 -3.912,14.3411 -7,21c0,-2 0,-4 0,-6c-1.89,0.2035 -3.39,-0.4632 -4.5,-2c-1.311,-3.9545 -3.144,-7.6212 -5.5,-11c0.477,-0.9776 1.143,-1.8109 2,-2.5c-1.228,-0.779 -2.228,-1.779 -3,-3c0.914,-1.4064 1.58,-2.9064 2,-4.5c2.05,-2.0475 4.383,-3.7141 7,-5z" fill="#35a8b8"/>
            </g>
            <g stroke="null" transform="matrix(0.3373524974841981,0,0,0.35488802679704234,-6845.299283860188,-5795.54207462124) " id="svg_24">
                <path stroke="null" id="svg_25" d="m20087.91849,16406.671159c-0.221,1.2348 -0.888,2.2348 -2,3c1.324,1.4347 2.99,2.4347 5,3c-3.98,2.7201 -3.98,5.3868 0,8c1.95,5.1095 4.117,10.1095 6.5,15c2.122,0.7199 2.622,1.8866 1.5,3.5c0.948,0.4828 1.948,0.6495 3,0.5c-0.551,3.307 -0.884,6.64 -1,10c0,0.667 -0.333,1 -1,1c0.157,-1.373 -0.01,-2.707 -0.5,-4c-2.7,-3.437 -5.034,-7.1032 -7,-11c-1.011,-0.8366 -2.178,-1.17 -3.5,-1c-1.781,-6.888 -4.114,-13.5547 -7,-20c-0.917,-0.6272 -1.917,-0.9606 -3,-1c2.69,-2.6846 5.69,-5.0179 9,-7z" fill="#4392b6"/>
            </g>
            <g stroke="null" transform="matrix(0.3373524974841981,0,0,0.35488802679704234,-6845.299283860188,-5795.54207462124) " id="svg_26">
                <path stroke="null" id="svg_27" d="m20098.91849,16397.671159c-0.42,1.5936 -1.086,3.0936 -2,4.5c0.772,1.221 1.772,2.221 3,3c-0.857,0.6891 -1.523,1.5224 -2,2.5c2.356,3.3788 4.189,7.0455 5.5,11c1.11,1.5368 2.61,2.2035 4.5,2c0,2 0,4 0,6c-2.089,7.8173 -4.422,15.484 -7,23c0.116,-3.36 0.449,-6.693 1,-10c-1.052,0.1495 -2.052,-0.0172 -3,-0.5c1.122,-1.6134 0.622,-2.7801 -1.5,-3.5c-2.383,-4.8905 -4.55,-9.8905 -6.5,-15c-3.98,-2.6132 -3.98,-5.2799 0,-8c-2.01,-0.5653 -3.676,-1.5653 -5,-3c1.112,-0.7652 1.779,-1.7652 2,-3c3.85,-2.7608 7.517,-5.7608 11,-9z" fill="#3f9ab7"/>
            </g>
            <g stroke="null" transform="matrix(0.3373524974841981,0,0,0.35488802679704234,-6845.299283860188,-5795.54207462124) " id="svg_28">
                <path stroke="null" id="svg_29" d="m20493.91849,16413.671159c1.175,-0.219 2.175,0.1143 3,1c-5.413,8.9121 -12.08,16.7454 -20,23.5c-0.667,0.6667 -1.333,0.6667 -2,0c4.699,-9.5205 11.032,-17.6872 19,-24.5z" fill="#dfdfdf"/>
            </g>
            <g stroke="null" transform="matrix(0.3373524974841981,0,0,0.35488802679704234,-6845.299283860188,-5795.54207462124) " id="svg_30">
                <path stroke="null" id="svg_31" d="m20078.91849,16413.671159c1.083,0.0394 2.083,0.3728 3,1c2.886,6.4453 5.219,13.112 7,20c1.322,-0.17 2.489,0.1634 3.5,1c1.966,3.8968 4.3,7.563 7,11c0.49,1.293 0.657,2.627 0.5,4c-1.059,6.57 -2.892,12.903 -5.5,19c-2,1.333 -4,1.333 -6,0c-5.94,-16.986 -11.773,-33.9861 -17.5,-51c2.152,-2.4848 4.819,-4.1515 8,-5z" fill="#5286b1"/>
            </g>
            <g stroke="null" transform="matrix(0.3373524974841981,0,0,0.35488802679704234,-6845.299283860188,-5795.54207462124) " id="svg_32">
                <path stroke="null" id="svg_33" d="m20424.91849,16426.671159c1.333,0 2.667,0 4,0c0.035,5.9398 -2.632,9.9398 -8,12c-2.333,-0.3333 -3.667,-1.6667 -4,-4c2.354,-3.0211 5.021,-5.6877 8,-8z" fill="#101010"/>
            </g>
            <g stroke="null" transform="matrix(0.3373524974841981,0,0,0.35488802679704234,-6845.299283860188,-5795.54207462124) " id="svg_34">
                <path stroke="null" id="svg_35" d="m20043.91849,16418.671159c1.19,2.3262 3.19,3.4928 6,3.5c2.136,4.1287 4.969,7.6287 8.5,10.5c0.192,-2.0767 0.692,-4.0767 1.5,-6c0.667,4.3333 1.333,8.6667 2,13c0.692,-0.5253 1.192,-1.1919 1.5,-2c2.423,2.2795 4.59,4.613 6.5,7c1.156,3.623 2.156,7.289 3,11c-1.35,-0.983 -2.35,-2.316 -3,-4c-1.084,1.165 -1.917,2.498 -2.5,4c-1.604,-2.446 -3.437,-4.78 -5.5,-7c-4.878,-2.711 -8.545,-6.5441 -11,-11.5c-4.35,-1.3214 -7.683,-3.8214 -10,-7.5c1.114,-3.75 2.114,-7.4167 3,-11z" fill="#4095b7"/>
            </g>
            <g stroke="null" transform="matrix(0.3373524974841981,0,0,0.35488802679704234,-6845.299283860188,-5795.54207462124) " id="svg_36">
                <path stroke="null" id="svg_37" d="m20131.91849,16430.671159c13,1.3333 26,1.3333 39,0c-6.785,1.4127 -13.785,2.246 -21,2.5c-3.493,1.4172 -3.66,2.9172 -0.5,4.5c0.499,3.6516 0.665,7.318 0.5,11c-1.333,0 -2.667,0 -4,0c0,1 0,2 0,3c2.667,0 5.333,0 8,0c-5.103,4.725 -10.769,8.725 -17,12c-0.653,-1.307 -1.32,-2.64 -2,-4c1.093,-3.608 1.26,-7.275 0.5,-11c-0.337,-6.31 -1.504,-12.3097 -3.5,-18z" fill="#3a9eb7"/>
            </g>
            <g stroke="null" transform="matrix(0.3373524974841981,0,0,0.35488802679704234,-6845.299283860188,-5795.54207462124) " id="svg_38">
                <path stroke="null" id="svg_39" d="m20188.91849,16427.671159c-11.112,8.7738 -22.779,16.774 -35,24c-2.667,0 -5.333,0 -8,0c0,-1 0,-2 0,-3c1.333,0 2.667,0 4,0c0.165,-3.682 -0.001,-7.3484 -0.5,-11c-3.16,-1.5828 -2.993,-3.0828 0.5,-4.5c7.215,-0.254 14.215,-1.0873 21,-2.5c6.023,-1.0203 12.023,-2.0203 18,-3z" fill="#31b0ba"/>
            </g>
            <g stroke="null" transform="matrix(0.3373524974841981,0,0,0.35488802679704234,-6845.299283860188,-5795.54207462124) " id="svg_40">
                <path stroke="null" id="svg_41" d="m20359.91849,16489.671159c-2.192,3.598 -3.192,7.598 -3,12c-1.086,3.924 -2.753,7.591 -5,11c-2.776,1.63 -5.776,2.297 -9,2c0.178,-2.716 0.678,-5.383 1.5,-8c10.163,-21.551 18.496,-43.884 25,-67c2.737,-1.1105 5.571,-1.2772 8.5,-0.5c0.745,2.5709 1.079,5.071 1,7.5c6.907,-5.3109 13.74,-5.3109 20.5,0c0.796,11.564 -4.038,20.064 -14.5,25.5c-6.622,3.541 -13.622,5.874 -21,7c-1.831,3.328 -3.164,6.828 -4,10.5z" fill="#0c0c0c"/>
            </g>
            <g stroke="null" transform="matrix(0.3373524974841981,0,0,0.35488802679704234,-6845.299283860188,-5795.54207462124) " id="svg_42">
                <path stroke="null" id="svg_43" d="m20118.91849,16425.671159c1.074,1.784 2.74,2.9506 5,3.5c2.707,0.3951 5.373,0.8951 8,1.5c1.996,5.6903 3.163,11.69 3.5,18c0.76,3.725 0.593,7.392 -0.5,11c0.68,1.36 1.347,2.693 2,4c-4.791,3.568 -9.791,6.902 -15,10c0.553,-5.516 -0.114,-11.016 -2,-16.5c1.28,-5.345 1.28,-10.678 0,-16c1.344,-3.5032 1.677,-7.0032 1,-10.5c-0.825,-0.8857 -1.825,-1.219 -3,-1c-0.268,-1.599 0.066,-2.9324 1,-4z" fill="#4b8cb5"/>
            </g>
            <g stroke="null" transform="matrix(0.3373524974841981,0,0,0.35488802679704234,-6845.299283860188,-5795.54207462124) " id="svg_44">
                <path stroke="null" id="svg_45" d="m20198.91849,16508.671159c-14.159,-5.413 -27.492,-12.413 -40,-21c-3.784,-4.057 -8.117,-7.391 -13,-10c-1.726,-1.728 -3.059,-3.728 -4,-6c14.269,-10.48 28.603,-20.98 43,-31.5c1.634,-0.4935 3.301,-0.6602 5,-0.5c3.301,21.911 6.967,43.744 11,65.5c0.113,1.699 -0.553,2.866 -2,3.5z" fill="#1b2023"/>
            </g>
            <g stroke="null" transform="matrix(0.3373524974841981,0,0,0.35488802679704234,-6845.299283860188,-5795.54207462124) " id="svg_46">
                <path stroke="null" id="svg_47" d="m20525.91849,16438.671159c3.048,1.6187 6.381,2.6187 10,3c-3.667,0 -7.333,0 -11,0c-0.237,-1.291 0.096,-2.291 1,-3z" fill="#7f7f7f"/>
            </g>
            <g stroke="null" transform="matrix(0.3373524974841981,0,0,0.35488802679704234,-6845.299283860188,-5795.54207462124) " id="svg_48">
                <path stroke="null" id="svg_49" d="m20455.91849,16446.671159c2.104,-0.299 4.104,0.034 6,1c-7.553,8.721 -15.886,16.554 -25,23.5c-1.293,0.49 -2.627,0.657 -4,0.5c1.743,-6.937 5.41,-12.77 11,-17.5c3.907,-2.759 7.907,-5.259 12,-7.5z" fill="#efefef"/>
            </g>
            <g stroke="null" transform="matrix(0.3373524974841981,0,0,0.35488802679704234,-6845.299283860188,-5795.54207462124) " id="svg_50">
                <path stroke="null" id="svg_51" d="m20689.91849,16446.671159c2.027,-0.162 4.027,0.005 6,0.5c-7.644,7.976 -15.644,15.642 -24,23c-1.525,1.009 -3.192,1.509 -5,1.5c-0.16,-1.699 0.006,-3.366 0.5,-5c5.203,-9.336 12.703,-16.003 22.5,-20z" fill="#ececec"/>
            </g>
            <g stroke="null" transform="matrix(0.3373524974841981,0,0,0.35488802679704234,-6845.299283860188,-5795.54207462124) " id="svg_52">
                <path stroke="null" id="svg_53" d="m20784.91849,16446.671159c2.687,-0.164 5.354,0.003 8,0.5c-7.908,5.902 -15.241,12.569 -22,20c-2.476,2.571 -5.476,4.071 -9,4.5c0.792,-5.914 3.459,-10.914 8,-15c4.583,-4.113 9.583,-7.447 15,-10z" fill="#ececec"/>
            </g>
            <g stroke="null" transform="matrix(0.3373524974841981,0,0,0.35488802679704234,-6845.299283860188,-5795.54207462124) " id="svg_54">
                <path stroke="null" id="svg_55" d="m20834.91849,16446.671159c2.69,-0.164 5.35,0.003 8,0.5c-6.97,5.968 -13.64,12.301 -20,19c-3.19,2.929 -6.857,4.762 -11,5.5c2.161,-8.789 7.161,-15.622 15,-20.5c2.89,-1.274 5.56,-2.774 8,-4.5z" fill="#efefef"/>
            </g>
            <g stroke="null" transform="matrix(0.3373524974841981,0,0,0.35488802679704234,-6845.299283860188,-5795.54207462124) " id="svg_56">
                <path stroke="null" id="svg_57" d="m20386.91849,16447.671159c1.667,0 3.333,0 5,0c-1.555,7.576 -5.555,13.743 -12,18.5c-3.84,2.421 -7.84,4.588 -12,6.5c-0.333,-0.333 -0.667,-0.667 -1,-1c4.173,-10.165 10.839,-18.165 20,-24z" fill="#ededed"/>
            </g>
            <g stroke="null" transform="matrix(0.3373524974841981,0,0,0.35488802679704234,-6845.299283860188,-5795.54207462124) " id="svg_58">
                <path stroke="null" id="svg_59" d="m20494.91849,16447.671159c1.175,-0.219 2.175,0.114 3,1c-3.984,5.809 -9.317,9.309 -16,10.5c3.933,-4.442 8.267,-8.276 13,-11.5z" fill="#e3e3e3"/>
            </g>
            <g stroke="null" transform="matrix(0.3373524974841981,0,0,0.35488802679704234,-6845.299283860188,-5795.54207462124) " id="svg_60">
                <path stroke="null" id="svg_61" d="m20879.91849,16446.671159c1,-0.03 1.66,0.47 2,1.5c-3.75,4.735 -8.41,8.402 -14,11c-1,0.667 -2,0.667 -3,0c4.33,-5.139 9.33,-9.305 15,-12.5z" fill="#dbdbdb"/>
            </g>
            <g stroke="null" transform="matrix(0.3373524974841981,0,0,0.35488802679704234,-6845.299283860188,-5795.54207462124) " id="svg_62">
                <path stroke="null" id="svg_63" d="m19993.91849,16440.671159c5.27,3.435 9.77,7.769 13.5,13c4.455,6.596 8.621,13.262 12.5,20c0.826,2.985 2.159,5.651 4,8c1.754,5.805 3.754,11.471 6,17c1.046,3.228 1.712,6.561 2,10c-17.333,0 -34.667,0 -52,0c4.043,-22.832 8.71,-45.499 14,-68z" fill="#1b1f22"/>
            </g>
            <g stroke="null" transform="matrix(0.3373524974841981,0,0,0.35488802679704234,-6845.299283860188,-5795.54207462124) " id="svg_64">
                <path stroke="null" id="svg_65" d="m20076.91849,16470.671159c0.617,0.111 1.117,0.444 1.5,1c0.526,3.411 1.359,6.745 2.5,10c-1.196,2.638 -3.196,3.471 -6,2.5c-2.09,-0.669 -3.757,-1.836 -5,-3.5c1.333,0 2.667,0 4,0c0.117,-1.984 -0.55,-3.65 -2,-5c-6.508,-5.011 -12.508,-10.511 -18,-16.5c-4.487,-0.587 -7.82,-2.92 -10,-7c-2.996,-0.522 -5.329,-2.022 -7,-4.5c-1.018,0.693 -2.018,1.359 -3,2c0.575,-3.412 1.908,-6.412 4,-9c1.499,-1.1782 2.499,-2.8449 3,-5c0.831,1.9731 0.998,3.9731 0.5,6c1,-0.6667 2,-1.3333 3,-2c6.871,7.205 14.037,14.039 21.5,20.5c2.206,2.346 4.706,2.846 7.5,1.5c0.72,1.612 0.554,3.112 -0.5,4.5c0.783,2.118 2.116,3.618 4,4.5z" fill="#5382af"/>
            </g>
            <g stroke="null" transform="matrix(0.3373524974841981,0,0,0.35488802679704234,-6845.299283860188,-5795.54207462124) " id="svg_66">
                <path stroke="null" id="svg_67" d="m20725.91849,16448.671159c-0.268,1.599 0.066,2.932 1,4c-1.114,1.385 -2.114,2.885 -3,4.5c-0.832,0.688 -1.498,0.521 -2,-0.5c1.379,-2.759 2.713,-5.425 4,-8z" fill="#b9b9b9"/>
            </g>
            <g stroke="null" transform="matrix(0.3373524974841981,0,0,0.35488802679704234,-6845.299283860188,-5795.54207462124) " id="svg_68">
                <path stroke="null" id="svg_69" d="m20040.91849,16429.671159c2.317,3.6786 5.65,6.1786 10,7.5c2.455,4.9559 6.122,8.789 11,11.5c2.063,2.22 3.896,4.554 5.5,7c0.583,-1.502 1.416,-2.835 2.5,-4c0.65,1.684 1.65,3.017 3,4c2.114,4.694 3.447,9.694 4,15c-1.884,-0.882 -3.217,-2.382 -4,-4.5c1.054,-1.388 1.22,-2.888 0.5,-4.5c-2.794,1.346 -5.294,0.846 -7.5,-1.5c-7.463,-6.461 -14.629,-13.295 -21.5,-20.5c-1,0.6667 -2,1.3333 -3,2c0.498,-2.0269 0.331,-4.0269 -0.5,-6c-0.501,2.1551 -1.501,3.8218 -3,5c0.426,-3.9268 1.426,-7.5935 3,-11z" fill="#498cb4"/>
            </g>
            <g stroke="null" transform="matrix(0.3373524974841981,0,0,0.35488802679704234,-6845.299283860188,-5795.54207462124) " id="svg_70">
                <path stroke="null" id="svg_71" d="m20560.91849,16451.671159c1.073,0.751 1.24,1.751 0.5,3c-3.585,5.502 -6.919,11.169 -10,17c-2.061,2.306 -4.228,4.473 -6.5,6.5c-0.948,0.483 -1.948,0.649 -3,0.5c-0.128,-2.155 0.372,-4.155 1.5,-6c5.668,-7.165 11.501,-14.165 17.5,-21z" fill="#e3e3e3"/>
            </g>
            <g stroke="null" transform="matrix(0.3373524974841981,0,0,0.35488802679704234,-6845.299283860188,-5795.54207462124) " id="svg_72">
                <path stroke="null" id="svg_73" d="m20108.91849,16482.671159c-1.864,1.293 -3.864,1.293 -6,0c-0.087,-7.324 1.58,-14.324 5,-21c1.324,-1.35 2.324,-1.183 3,0.5c-0.94,4.347 -0.94,8.847 0,13.5c-0.682,2.341 -1.349,4.674 -2,7z" fill="#7472a8"/>
            </g>
            <g stroke="null" transform="matrix(0.3373524974841981,0,0,0.35488802679704234,-6845.299283860188,-5795.54207462124) " id="svg_74">
                <path stroke="null" id="svg_75" d="m20117.91849,16429.671159c1.175,-0.219 2.175,0.1143 3,1c0.677,3.4968 0.344,6.9968 -1,10.5c1.28,5.322 1.28,10.655 0,16c1.886,5.484 2.553,10.984 2,16.5c-4.035,3.357 -8.368,6.357 -13,9c0.651,-2.326 1.318,-4.659 2,-7c-0.94,-4.653 -0.94,-9.153 0,-13.5c-0.676,-1.683 -1.676,-1.85 -3,-0.5c2.463,-11.024 5.796,-21.6905 10,-32z" fill="#627aac"/>
            </g>
            <g stroke="null" transform="matrix(0.3373524974841981,0,0,0.35488802679704234,-6845.299283860188,-5795.54207462124) " id="svg_76">
                <path stroke="null" id="svg_77" d="m19993.91849,16440.671159c1.172,-1.2053 2.505,-1.2053 4,0c20.708,15.057 41.375,30.057 62,45c-2.549,0.059 -4.549,-0.941 -6,-3c-1.333,0.333 -2.667,0.667 -4,1c-4.473,-1.817 -8.473,-4.317 -12,-7.5c-1.284,-0.684 -2.451,-0.517 -3.5,0.5c-3.363,-3.445 -6.863,-4.112 -10.5,-2c0,-1.333 0,-2.667 0,-4c-1,0 -2,0 -3,0c0.237,1.291 -0.096,2.291 -1,3c-3.879,-6.738 -8.045,-13.404 -12.5,-20c-3.73,-5.231 -8.23,-9.565 -13.5,-13z" fill="#419cb8"/>
            </g>
            <g stroke="null" transform="matrix(0.3373524974841981,0,0,0.35488802679704234,-6845.299283860188,-5795.54207462124) " id="svg_78">
                <path stroke="null" id="svg_79" d="m20069.91849,16480.671159c-13.204,-8.43 -26.204,-17.097 -39,-26c1.547,-1.268 2.547,-2.935 3,-5c0.982,-0.641 1.982,-1.307 3,-2c1.671,2.478 4.004,3.978 7,4.5c2.18,4.08 5.513,6.413 10,7c5.492,5.989 11.492,11.489 18,16.5c1.45,1.35 2.117,3.016 2,5c-1.333,0 -2.667,0 -4,0z" fill="#5f7aab"/>
            </g>
            <g stroke="null" transform="matrix(0.3373524974841981,0,0,0.35488802679704234,-6845.299283860188,-5795.54207462124) " id="svg_80">
                <path stroke="null" id="svg_81" d="m20732.91849,16461.671159c-0.614,3.635 -0.948,7.302 -1,11c-1.402,-3.79 -1.069,-7.456 1,-11z" fill="#585858"/>
            </g>
            <g stroke="null" transform="matrix(0.3373524974841981,0,0,0.35488802679704234,-6845.299283860188,-5795.54207462124) " id="svg_82">
                <path stroke="null" id="svg_83" d="m20412.91849,16463.671159c-0.536,3.198 0.131,5.865 2,8c-1.042,1.291 -2.208,1.291 -3.5,0c-0.703,-2.982 -0.203,-5.649 1.5,-8z" fill="#b3b3b3"/>
            </g>
            <g stroke="null" transform="matrix(0.3373524974841981,0,0,0.35488802679704234,-6845.299283860188,-5795.54207462124) " id="svg_84">
                <path stroke="null" id="svg_85" d="m20791.91849,16462.671159c-0.555,3.512 0.112,6.512 2,9c-1.042,1.291 -2.208,1.291 -3.5,0c-0.781,-3.317 -0.281,-6.317 1.5,-9z" fill="#aaaaaa"/>
            </g>
            <g stroke="null" transform="matrix(0.3373524974841981,0,0,0.35488802679704234,-6845.299283860188,-5795.54207462124) " id="svg_86">
                <path stroke="null" id="svg_87" d="m20462.91849,16468.671159c-0.7,4.298 -1.033,8.631 -1,13c-0.66,-1.464 -0.993,-3.131 -1,-5c-0.118,-2.986 0.548,-5.652 2,-8z" fill="#838383"/>
            </g>
            <g stroke="null" transform="matrix(0.3373524974841981,0,0,0.35488802679704234,-6845.299283860188,-5795.54207462124) " id="svg_88">
                <path stroke="null" id="svg_89" d="m20135.91849,16476.671159c0.739,-0.131 1.406,0.036 2,0.5c-0.138,8.512 -0.472,17.179 -1,26c0.808,0.308 1.475,0.808 2,1.5c-2.051,0.258 -4.051,1.258 -6,3c0.002,-2.331 -0.831,-4.331 -2.5,-6c-0.581,-3.69 -0.415,-7.356 0.5,-11c0.11,-1.874 -0.556,-3.374 -2,-4.5c1.017,-1.049 1.184,-2.216 0.5,-3.5c-1.011,0.837 -2.178,1.17 -3.5,1c2.975,-2.823 6.308,-5.156 10,-7z" fill="#5e7bae"/>
            </g>
            <g stroke="null" transform="matrix(0.3373524974841981,0,0,0.35488802679704234,-6845.299283860188,-5795.54207462124) " id="svg_90">
                <path stroke="null" id="svg_91" d="m20132.91849,16507.671159c-1.291,-0.237 -2.291,0.096 -3,1c-10.181,0.327 -20.181,-0.006 -30,-1c6.342,0.166 12.675,0 19,-0.5c0.476,-4.025 0.809,-8.025 1,-12c-1,-0.333 -2,-0.667 -3,-1c2.085,-1.041 3.752,-2.541 5,-4.5c-1.2,-0.792 -2.533,-0.792 -4,0c2.33,-2.314 4.996,-4.314 8,-6c1.322,0.17 2.489,-0.163 3.5,-1c0.684,1.284 0.517,2.451 -0.5,3.5c1.444,1.126 2.11,2.626 2,4.5c-0.915,3.644 -1.081,7.31 -0.5,11c1.669,1.669 2.502,3.669 2.5,6z" fill="#7072a7"/>
            </g>
            <g stroke="null" transform="matrix(0.3373524974841981,0,0,0.35488802679704234,-6845.299283860188,-5795.54207462124) " id="svg_92">
                <path stroke="null" id="svg_93" d="m20141.91849,16471.671159c0.941,2.272 2.274,4.272 4,6c0,1 0,2 0,3c1.846,-0.278 3.18,0.389 4,2c-0.891,1.09 -1.891,1.09 -3,0c-1.127,1.769 -0.627,3.103 1.5,4c0.191,5.583 0.691,11.083 1.5,16.5c-1.964,1.451 -3.297,3.284 -4,5.5c-5.333,0 -10.667,0 -16,0c0.709,-0.904 1.709,-1.237 3,-1c1.949,-1.742 3.949,-2.742 6,-3c-0.525,-0.692 -1.192,-1.192 -2,-1.5c0.528,-8.821 0.862,-17.488 1,-26c-0.594,-0.464 -1.261,-0.631 -2,-0.5c1.96,-1.656 3.96,-3.323 6,-5z" fill="#4b8bb5"/>
            </g>
            <g stroke="null" transform="matrix(0.3373524974841981,0,0,0.35488802679704234,-6845.299283860188,-5795.54207462124) " id="svg_94">
                <path stroke="null" id="svg_95" d="m20059.91849,16485.671159c9.059,5.231 17.392,11.398 25,18.5c-0.139,1.301 -0.805,2.134 -2,2.5c-4.238,-1.016 -8.571,-2.182 -13,-3.5c-5.678,-3.999 -12.011,-6.666 -19,-8c0.333,-0.333 0.667,-0.667 1,-1c-2.378,-0.511 -4.712,-1.178 -7,-2c-2.534,-3.278 -5.534,-6.111 -9,-8.5c-3.14,-0.446 -5.807,-1.779 -8,-4c-1.084,1.165 -1.917,2.498 -2.5,4c-0.278,-0.916 -0.778,-1.582 -1.5,-2c-1.841,-2.349 -3.174,-5.015 -4,-8c0.904,-0.709 1.237,-1.709 1,-3c1,0 2,0 3,0c0,1.333 0,2.667 0,4c3.637,-2.112 7.137,-1.445 10.5,2c1.049,-1.017 2.216,-1.184 3.5,-0.5c3.527,3.183 7.527,5.683 12,7.5c1.333,-0.333 2.667,-0.667 4,-1c1.451,2.059 3.451,3.059 6,3z" fill="#4790b4"/>
            </g>
            <g stroke="null" transform="matrix(0.3373524974841981,0,0,0.35488802679704234,-6845.299283860188,-5795.54207462124) " id="svg_96">
                <path stroke="null" id="svg_97" d="m20099.91849,16507.671159c-1.613,-1.338 -2.113,-3.005 -1.5,-5c6.127,-4.974 12.627,-9.307 19.5,-13c1.467,-0.792 2.8,-0.792 4,0c-1.248,1.959 -2.915,3.459 -5,4.5c1,0.333 2,0.667 3,1c-0.191,3.975 -0.524,7.975 -1,12c-6.325,0.5 -12.658,0.666 -19,0.5z" fill="#8264a3"/>
            </g>
            <g stroke="null" transform="matrix(0.3373524974841981,0,0,0.35488802679704234,-6845.299283860188,-5795.54207462124) " id="svg_98">
                <path stroke="null" id="svg_99" d="m20145.91849,16477.671159c4.883,2.609 9.216,5.943 13,10c0,1 0,2 0,3c1.175,-0.219 2.175,0.114 3,1c-0.82,1.611 -2.154,2.278 -4,2c0.529,3.851 -0.138,7.351 -2,10.5c0.808,0.308 1.475,0.808 2,1.5c-1.923,0.808 -3.923,1.308 -6,1.5c0.667,0.333 1.333,0.667 2,1c-1.634,0.494 -3.301,0.66 -5,0.5c-1,0 -2,0 -3,0c0.703,-2.216 2.036,-4.049 4,-5.5c-0.809,-5.417 -1.309,-10.917 -1.5,-16.5c-2.127,-0.897 -2.627,-2.231 -1.5,-4c1.109,1.09 2.109,1.09 3,0c-0.82,-1.611 -2.154,-2.278 -4,-2c0,-1 0,-2 0,-3z" fill="#3f96b6"/>
            </g>
            <g stroke="null" transform="matrix(0.3373524974841981,0,0,0.35488802679704234,-6845.299283860188,-5795.54207462124) " id="svg_100">
                <path stroke="null" id="svg_101" d="m20818.91849,16490.671159c0.876,-0.131 1.543,0.202 2,1c-3.472,6.78 -7.805,12.946 -13,18.5c-1.525,1.009 -3.192,1.509 -5,1.5c-0.04,-2.925 0.793,-5.591 2.5,-8c4.863,-4.004 9.363,-8.337 13.5,-13z" fill="#e0e0e0"/>
            </g>
            <g stroke="null" transform="matrix(0.3373524974841981,0,0,0.35488802679704234,-6845.299283860188,-5795.54207462124) " id="svg_102">
                <path stroke="null" id="svg_103" d="m20359.91849,16489.671159c-0.452,3.663 -0.952,7.33 -1.5,11c-0.383,0.556 -0.883,0.889 -1.5,1c-0.192,-4.402 0.808,-8.402 3,-12z" fill="#b9b9b9"/>
            </g>
            <g stroke="null" transform="matrix(0.3373524974841981,0,0,0.35488802679704234,-6845.299283860188,-5795.54207462124) " id="svg_104">
                <path stroke="null" id="svg_105" d="m20082.91849,16506.671159c-12.624,1.981 -25.624,2.648 -39,2c4.849,-0.666 9.849,-1.333 15,-2c-0.333,-0.333 -0.667,-0.667 -1,-1c-7.933,-1.981 -15.599,-4.481 -23,-7.5c-3.429,-5.491 -5.096,-5.325 -5,0.5c-2.246,-5.529 -4.246,-11.195 -6,-17c0.722,0.418 1.222,1.084 1.5,2c0.583,-1.502 1.416,-2.835 2.5,-4c2.193,2.221 4.86,3.554 8,4c3.466,2.389 6.466,5.222 9,8.5c2.288,0.822 4.622,1.489 7,2c-0.333,0.333 -0.667,0.667 -1,1c6.989,1.334 13.322,4.001 19,8c4.429,1.318 8.762,2.484 13,3.5z" fill="#5582af"/>
            </g>
            <g stroke="null" transform="matrix(0.3373524974841981,0,0,0.35488802679704234,-6845.299283860188,-5795.54207462124) " id="svg_106">
                <path stroke="null" id="svg_107" d="m20043.91849,16508.671159c-4,0 -8,0 -12,0c-0.288,-3.439 -0.954,-6.772 -2,-10c-0.096,-5.825 1.571,-5.991 5,-0.5c7.401,3.019 15.067,5.519 23,7.5c0.333,0.333 0.667,0.667 1,1c-5.151,0.667 -10.151,1.334 -15,2z" fill="#6574a9"/>
            </g>
            <g stroke="null" transform="matrix(0.3373524974841981,0,0,0.35488802679704234,-6845.299283860188,-5795.54207462124) " id="svg_108">
                <path stroke="null" id="svg_109" d="m20158.91849,16487.671159c12.508,8.587 25.841,15.587 40,21c-16.667,1.333 -33.333,1.333 -50,0c1.699,0.16 3.366,-0.006 5,-0.5c-0.667,-0.333 -1.333,-0.667 -2,-1c2.077,-0.192 4.077,-0.692 6,-1.5c-0.525,-0.692 -1.192,-1.192 -2,-1.5c1.862,-3.149 2.529,-6.649 2,-10.5c1.846,0.278 3.18,-0.389 4,-2c-0.825,-0.886 -1.825,-1.219 -3,-1c0,-1 0,-2 0,-3z" fill="#3caeba"/>
            </g>
        </g>
    </g>
</svg>